<svg xmlns="http://www.w3.org/2000/svg" version="1.1" xmlns:xlink="http://www.w3.org/1999/xlink" xmlns:svgjs="http://svgjs.com/svgjs" width="512" height="512" x="0" y="0" viewBox="0 0 512 512" style="enable-background:new 0 0 512 512" xml:space="preserve" class=""><g><path fill="#ffffff" d="M448 354.16 330.207 256H160V32c0-17.672 14.328-32 32-32h288c17.672 0 32 14.328 32 32v192c0 17.672-14.328 32-32 32h-32zm0 0" data-original="#e76e54" class=""></path><path fill="#ffffff" d="M240 80h192c8.836 0 16 7.164 16 16s-7.164 16-16 16H240c-8.836 0-16-7.164-16-16s7.164-16 16-16zm0 0" data-original="#ffffff" class=""></path><path fill="#ffffff" d="M64 508.879V416H32c-17.672 0-32-14.328-32-32V192c0-17.672 14.328-32 32-32h288c17.672 0 32 14.328 32 32v192c0 17.672-14.328 32-32 32H212.594zm0 0" data-original="#ffc32c" class=""></path><g fill="#fff"><path d="M80 240h192c8.836 0 16 7.164 16 16s-7.164 16-16 16H80c-8.836 0-16-7.164-16-16s7.164-16 16-16zM256 336h-32v-32h32zm-80 0H80c-8.836 0-16-7.164-16-16s7.164-16 16-16h96c8.836 0 16 7.164 16 16s-7.164 16-16 16zm0 0" fill="#ffffff" data-original="#ffffff" class=""></path></g></g></svg>